<svg version="1.1" xmlns="http://www.w3.org/2000/svg" xmlns:xlink="http://www.w3.org/1999/xlink" x="0px" y="0px" width="260px" height="90px" viewBox="0 0 130 45" enable-background="new 0 0 130 45" xml:space="preserve">
<g>
	<text transform="matrix(1 0 0 1 62.6631 19.4819)"><tspan x="0" y="0" font-family="'Arial-BoldMT'" font-size="8">Roger Copeland</tspan><tspan x="22.648" y="9.6" font-family="'Arial-BoldMT'" font-size="8">Surveyors</tspan></text>
	<g>
		<path fill="#88BEE7" d="M34.463,29.947c-1.467,1.361-2.946,2.447-4.438,3.259c-1.492,0.812-3.233,1.218-5.223,1.218
			c-1.623,0-3.09-0.301-4.397-0.904c-1.311-0.602-2.436-1.426-3.378-2.473s-1.663-2.277-2.159-3.691
			c-0.275-0.781-0.467-1.597-0.59-2.441V42.42c0.398,0.196,0.802,0.387,1.218,0.564c2.696,1.15,5.615,1.729,8.757,1.729
			c4.188,0,7.592-0.721,10.211-2.16c2.617-1.439,4.947-3.285,6.989-5.537L34.463,29.947z"></path>
		<g>
			<path fill="#88BEE7" d="M33.418,1.885C30.799,0.627,27.5,0,23.521,0c-3.246,0-6.218,0.576-8.914,1.728
				c-0.416,0.178-0.82,0.368-1.217,0.566V0.785H1.452v42.098h11.938v-23.18c0.123-0.822,0.313-1.619,0.588-2.385
				c0.498-1.387,1.205-2.605,2.121-3.652s1.989-1.872,3.221-2.475c1.229-0.602,2.604-0.902,4.123-0.902
				c2.146,0,3.939,0.418,5.38,1.256c1.439,0.838,2.84,1.963,4.201,3.377l7.305-7.854C38.339,4.869,36.035,3.141,33.418,1.885z"></path>
		</g>
	</g>
</g>
</svg>