<svg version="1.1" xmlns="http://www.w3.org/2000/svg" xmlns:xlink="http://www.w3.org/1999/xlink" x="0px" y="0px" width="130px" height="45px" viewBox="0 0 130 45" enable-background="new 0 0 130 45" xml:space="preserve">
<g>
	<g>
		<path d="M12.66,23.551c2.834-5.145,4.616-5.669,5.246-6.511c-1.364-0.524-2.518-0.733-3.041-0.524
			c1.469-2.311,5.77-5.881,9.337-6.302c-1.231-2.794-2.593-6.555-3.125-8.056C13.557,5.76,8.358,13.441,8.358,22.344
			c0,9.518,5.942,17.643,14.312,20.872l0.062-0.235C19.586,40.774,13.184,35.523,12.66,23.551z M21.075,2.155
			c0.002,0.002,0.002,0.003,0.002,0.003c0.023-0.012,0.049-0.024,0.072-0.035C21.126,2.134,21.101,2.145,21.075,2.155z
			 M21.149,2.123c0.297-0.141,0.594-0.275,0.896-0.404C21.743,1.848,21.446,1.982,21.149,2.123z M27.872,44.526
			c-1.487-0.189-2.93-0.523-4.312-0.99C24.942,44.003,26.385,44.337,27.872,44.526z M40.255,13.26
			c-0.543-0.233-3.575-1.221-3.565-1.261C36.27,13.681,38.262,15.99,40.255,13.26z M38.798,1.497
			c0.344,0.135,0.687,0.274,1.021,0.425C39.484,1.771,39.142,1.632,38.798,1.497z M38.666,1.443c0,0,0,0.003-0.003,0.003
			c0.044,0.018,0.091,0.032,0.135,0.051C38.754,1.479,38.71,1.458,38.666,1.443z M35.01,3.809c1.786,0.358,2.906-0.808,3.653-2.362
			c-2.024-0.772-4.187-1.261-6.444-1.413C32.23,1.586,32.762,3.36,35.01,3.809z M23.038,1.328c-0.019,0.007-0.036,0.015-0.054,0.021
			c0.018-0.007,0.037-0.013,0.056-0.02C23.04,1.33,23.038,1.329,23.038,1.328z M27.034,3.702C28.98,3.328,29.648,1.635,29.807,0
			c-2.371,0.094-4.643,0.556-6.767,1.33C23.678,2.518,24.945,4.108,27.034,3.702z M22.984,1.35
			c-0.314,0.115-0.624,0.238-0.931,0.366C22.36,1.586,22.67,1.465,22.984,1.35z M32.175,33.108
			c-3.567-2.521-5.349-5.778-5.873-7.143c-0.735,0.841-0.945,0.945-1.051,1.471c-1.049-1.05-2.202-5.566,1.783-10.08
			c-1.992,1.154-9.128,8.505-3.672,15.331c0.211-0.525,0.524-2.939,0.946-2.835c3.758,4.255,5.925,9.019,5.559,14.84
			c0.28,0.008,0.559,0.021,0.84,0.021c1.823,0,3.593-0.224,5.289-0.637C35.963,39.647,35.202,35.246,32.175,33.108z M28.264,10.598
			c0.074-0.098,0.152-0.191,0.239-0.278C28.403,10.396,28.325,10.49,28.264,10.598z M53.058,22.344
			c0-8.589-4.842-16.046-11.939-19.792l-3.484,7.558c0,0,7.344,2.521,3.987,3.781c5.77,2.73,6.505,3.045,7.237,3.57
			c0.735,0.525,0.946,1.05-0.628,2.101c-0.629,1.786-1.784,2.834-2.729,2.94c-0.42-1.471-3.359-3.676-5.665-1.05
			c-2.311,2.624-0.211,4.83,1.049,4.935c1.257,0.105,1.889,0.42,3.881-0.63c0,3.36-0.941,4.515-1.781,5.041
			c-0.843,0.525-0.423-2.626-5.247-1.997c-2.311-0.104-10.495-7.663-5.352-14.385c-2.993,0.579-4.828-2.572-4.123-3.818
			c-1.259,1.674-0.611,4.778,0.975,5.078c-0.631,2.521-2.412,7.455,1.995,11.971c6.817,5.986,9.232,5.462,10.909,13.863
			c0.005,0.014,0.008,0.026,0.01,0.04C48.683,37.646,53.058,30.509,53.058,22.344z M42.879,23.551
			c3.396-0.682,3.147,0.735,3.987,0.735s2.728,0.525,4.198-0.526c-1.786,2.732-3.463,2.837-5.562,1.366S42.354,23.655,42.879,23.551
			z M42.154,41.555c0-0.001,0-0.004-0.002-0.005c-0.401,0.24-0.81,0.47-1.228,0.686C41.343,42.02,41.753,41.796,42.154,41.555z"></path>
	</g>
	<g>
		<rect x="80.74" y="14.858" width="5.509" height="15.071"></rect>
		<g>
			<path d="M72.143,22.854c1.918-1.13,3.928-1.476,3.928-4.171c0-3.737-5.39-3.825-5.39-3.825H59.988V29.93h5.509V17.031
				c7.916,0.012,4.082,5.39,1.07,6.086c0.641,1.737,3.931,5.475,5.94,6.343c2.01,0.871,4.296,0.263,6.763,0.263
				C78.448,29.287,74.061,25.027,72.143,22.854z"></path>
		</g>
		<path d="M100.873,27.193c-3.935,0-7.126-2.262-7.126-5.054c0-2.789,3.191-5.051,7.126-5.051c1.827,0,3.49,0.487,4.75,1.289v-2.394
			c-1.766-0.711-3.845-1.125-6.073-1.125c-6.382,0-11.556,3.375-11.556,7.534c0,4.162,5.174,7.537,11.556,7.537
			c2.229,0,4.308-0.414,6.073-1.125v-2.899C104.363,26.707,102.7,27.193,100.873,27.193z"></path>
		<g>
			<path d="M120.554,21.63c-1.331-0.705-2.976-1.403-5.401-1.754c-2.428-0.353-2.29-2.372-1.101-2.724
				c1.192-0.349,4.489-0.263,6.229,0.792c0-1.405,0.183-2.722,0.183-2.722s-8.607-2.458-12.728,2.107
				c-1.52,2.668,0.501,4.498,2.317,5.491c1.388,0.83,2.824,1.261,4.748,1.61c1.922,0.35,2.29,2.634,1.099,2.985
				c-1.189,0.351-6.409,0.526-8.15-0.527c0,1.404,0.092,2.458,0.092,2.458s9.707,2.724,13.828-1.844
				C123.187,24.835,121.882,22.333,120.554,21.63z"></path>
		</g>
	</g>
</g>
</svg>